<svg xmlns="http://www.w3.org/2000/svg" width="90" height="11" fill="none"><path fill="#FFF265" d="m9 0 2.02 4.146h6.54l-5.29 2.562 2.02 4.146L9 8.292l-5.29 2.562 2.02-4.146L.44 4.146h6.54L9 0ZM27 0l2.02 4.146h6.54l-5.29 2.562 2.02 4.146L27 8.292l-5.29 2.562 2.02-4.146-5.29-2.562h6.54L27 0ZM45 0l2.02 4.146h6.54l-5.29 2.562 2.02 4.146L45 8.292l-5.29 2.562 2.02-4.146-5.29-2.562h6.54L45 0ZM63 0l2.02 4.146h6.54l-5.29 2.562 2.02 4.146L63 8.292l-5.29 2.562 2.02-4.146-5.29-2.562h6.54L63 0ZM81 0l2.02 4.146h6.54l-5.29 2.562 2.02 4.146L81 8.292l-5.29 2.562 2.02-4.146-5.29-2.562h6.54L81 0Z"/></svg>