<svg xmlns="http://www.w3.org/2000/svg" width="883.708" height="724.225" data-name="Layer 1"><path fill="#e6e6e6" d="M657.542 567.62H383.54a16.519 16.519 0 0 1-16.5-16.5v-197a16.519 16.519 0 0 1 16.5-16.5h274a16.519 16.519 0 0 1 16.5 16.5v197a16.52 16.52 0 0 1-16.5 16.5Z"/><path fill="#fff" d="M388.606 554.467h263.87a8 8 0 0 0 8-8V358.773a8 8 0 0 0-8-8h-263.87a8 8 0 0 0-8 8v187.694a8 8 0 0 0 8 8Z"/><path fill="#e6e6e6" d="M290.5 303.145h-274a16.519 16.519 0 0 1-16.5-16.5v-197a16.519 16.519 0 0 1 16.5-16.5h274a16.519 16.519 0 0 1 16.5 16.5v197a16.519 16.519 0 0 1-16.5 16.5Z"/><path fill="#fff" d="M21.565 289.992h263.87a8 8 0 0 0 8-8V94.298a8 8 0 0 0-8-8H21.565a8 8 0 0 0-8 8v187.694a8 8 0 0 0 8 8Z"/><path fill="#e6e6e6" d="M621.023 409.093h-168.55a6.02 6.02 0 1 0 0 12.04h168.55a6.02 6.02 0 0 0 0-12.04ZM452.473 446.137a6.02 6.02 0 1 0 0 12.04h168.55a6.02 6.02 0 0 0 0-12.04ZM452.473 483.182a6.02 6.02 0 1 0 0 12.039h168.55a6.02 6.02 0 0 0 0-12.04Z"/><circle cx="420.522" cy="415.576" r="7.409" fill="#ca1f27"/><circle cx="420.522" cy="452.62" r="7.409" fill="#e6e6e6"/><circle cx="420.522" cy="489.664" r="7.409" fill="#e6e6e6"/><path fill="#ca1f27" d="M553.88 415.113a6.02 6.02 0 0 1-6.019 6.02H452.69a6.167 6.167 0 0 1-6.184-5.22 6.03 6.03 0 0 1 5.968-6.82h95.388a6.02 6.02 0 0 1 6.02 6.02Z"/><circle cx="520.541" cy="288.237" r="24.079" fill="#e6e6e6"/><circle cx="678.437" cy="376.124" r="12.039" fill="#fff" transform="rotate(-80.783 547.84 424.973)"/><path fill="#e6e6e6" d="M41.07 182.425a5.966 5.966 0 1 0 0 11.931h224.86a5.966 5.966 0 1 0 0-11.931ZM41.07 219.137a5.966 5.966 0 1 0 0 11.93h224.86a5.966 5.966 0 0 0 0-11.93Z"/><path fill="#ca1f27" d="M141.569 257.684a5.966 5.966 0 0 0 0 11.931h23.862a5.966 5.966 0 0 0 0-11.931ZM121.524 106.675a1.837 1.837 0 0 0-1.835 1.835v46.596a1.837 1.837 0 0 0 1.835 1.836h63.952a1.837 1.837 0 0 0 1.835-1.836V108.51a1.837 1.837 0 0 0-1.835-1.835Z"/><circle cx="153.5" cy="126.655" r="10.096" fill="#fff"/><path fill="#fff" d="M170.02 152.353a10.018 10.018 0 0 1-1.101 4.59H138.08a10.094 10.094 0 0 1 8.994-14.686h12.85a10.09 10.09 0 0 1 10.095 10.085Z"/><circle cx="153.5" cy="126.655" r="10.096" fill="#fff"/><path fill="#fff" d="M170.02 152.353a10.018 10.018 0 0 1-1.101 4.59H138.08a10.094 10.094 0 0 1 8.994-14.686h12.85a10.09 10.09 0 0 1 10.095 10.085Z"/><circle cx="153.5" cy="23.863" r="23.863" fill="#e6e6e6"/><circle cx="153.5" cy="23.863" r="11.931" fill="#ca1f27"/><path fill="#ffb8b8" d="m748.119 711.24-11.432-.001-5.437-44.096 16.873.002-.004 44.095z"/><path fill="#2f2e41" d="M728.52 707.973h22.049v13.882h-35.93a13.882 13.882 0 0 1 13.882-13.882Z"/><path fill="#ffb8b8" d="m809.741 711.24-11.433-.001-5.436-44.096 16.873.002-.004 44.095z"/><path fill="#2f2e41" d="M790.142 707.973h22.048v13.882h-35.93a13.882 13.882 0 0 1 13.882-13.882Z"/><circle cx="776.26" cy="373.204" r="24.561" fill="#ffb8b8"/><path fill="#ffb8b8" d="M692.277 533.382a9.377 9.377 0 0 1 12.092-7.779l13.727-16.454 12.033 5.902-19.71 22.965a9.428 9.428 0 0 1-18.142-4.634ZM810.41 550.024a9.377 9.377 0 0 1 6.032-13.052l2.756-21.25 13.322-1.475-4.313 29.954a9.428 9.428 0 0 1-17.796 5.823Z"/><path fill="#ca1f27" d="M796.786 419.595a12.084 12.084 0 0 1 20.75 2.93l20.131 50.24a31.212 31.212 0 0 1 1.9 16.194l-6.556 44.159a4 4 0 0 1-5.131 3.236l-8.64-2.653a4 4 0 0 1-2.798-4.29 145.305 145.305 0 0 0-11.664-76.231l-9.49-21.228a12.084 12.084 0 0 1 1.498-12.357Z"/><path fill="#2f2e41" d="M782.24 397.764a26.205 26.205 0 1 0-4.91-51.825c-5.402-3.28-11.681-5.486-17.975-4.925s-12.518 4.298-14.872 10.162.175 13.594 6.027 15.977c3.752 1.528 7.989.787 11.993.171s8.371-1.018 11.856 1.048 5.051 7.605 1.93 10.188a10.738 10.738 0 0 0-3.084 11.82c1.568 4.057 5.85 7.315 9.035 7.384ZM812.713 532.411l4.356 165.34a4 4 0 0 1-4.202 4.1l-14.352-.732a4 4 0 0 1-3.747-3.367l-17.07-107.39a2 2 0 0 0-3.928-.121l-23.107 103.396a4 4 0 0 1-5.244 2.897l-14.244-.87a4 4 0 0 1-2.65-4.053l12.434-160.765Z"/><path fill="#ca1f27" d="M819.705 453.88c2.403-25.055-16.02-47.717-41.127-49.5-10.817-.768-27.612-1.043-33.148 13.136-16.678 42.714 12.518 41.676 2.459 78.683s-18.943 39.128-5.141 41.8 75.866 18.447 73.318-7.6c-1.567-16.01 1.242-51.526 3.639-76.519Z"/><path fill="#ca1f27" d="M748.383 413.172a12.084 12.084 0 0 1 16.294 13.178l-7.839 48.99a47.876 47.876 0 0 1-10.265 22.808l-25.46 31.024a4 4 0 0 1-6.064.139L709 522.595a4 4 0 0 1-.196-5.118l1.781-2.312a134.703 134.703 0 0 0 27.045-66.179l3.116-25.984a12.084 12.084 0 0 1 7.636-9.83Z"/><path fill="#ccc" d="M882.708 724.225h-258a1 1 0 0 1 0-2h258a1 1 0 0 1 0 2Z"/></svg>