<svg width="32" height="32" viewBox="0 0 32 32" fill="none" xmlns="http://www.w3.org/2000/svg">
<path d="M16.0002 16C14.5335 16 13.2779 15.4778 12.2335 14.4333C11.1891 13.3889 10.6668 12.1333 10.6668 10.6666C10.6668 9.19998 11.1891 7.94442 12.2335 6.89998C13.2779 5.85554 14.5335 5.33331 16.0002 5.33331C17.4668 5.33331 18.7224 5.85554 19.7668 6.89998C20.8113 7.94442 21.3335 9.19998 21.3335 10.6666C21.3335 12.1333 20.8113 13.3889 19.7668 14.4333C18.7224 15.4778 17.4668 16 16.0002 16ZM5.3335 26.6666V22.9333C5.3335 22.1778 5.52794 21.4833 5.91683 20.85C6.30572 20.2166 6.82239 19.7333 7.46683 19.4C8.84461 18.7111 10.2446 18.1944 11.6668 17.85C13.0891 17.5055 14.5335 17.3333 16.0002 17.3333C17.4668 17.3333 18.9113 17.5055 20.3335 17.85C21.7557 18.1944 23.1557 18.7111 24.5335 19.4C25.1779 19.7333 25.6946 20.2166 26.0835 20.85C26.4724 21.4833 26.6668 22.1778 26.6668 22.9333V26.6666H5.3335ZM8.00016 24H24.0002V22.9333C24.0002 22.6889 23.9391 22.4666 23.8168 22.2666C23.6946 22.0666 23.5335 21.9111 23.3335 21.8C22.1335 21.2 20.9224 20.75 19.7002 20.45C18.4779 20.15 17.2446 20 16.0002 20C14.7557 20 13.5224 20.15 12.3002 20.45C11.0779 20.75 9.86683 21.2 8.66683 21.8C8.46683 21.9111 8.30572 22.0666 8.1835 22.2666C8.06127 22.4666 8.00016 22.6889 8.00016 22.9333V24ZM16.0002 13.3333C16.7335 13.3333 17.3613 13.0722 17.8835 12.55C18.4057 12.0278 18.6668 11.4 18.6668 10.6666C18.6668 9.93331 18.4057 9.30554 17.8835 8.78331C17.3613 8.26109 16.7335 7.99998 16.0002 7.99998C15.2668 7.99998 14.6391 8.26109 14.1168 8.78331C13.5946 9.30554 13.3335 9.93331 13.3335 10.6666C13.3335 11.4 13.5946 12.0278 14.1168 12.55C14.6391 13.0722 15.2668 13.3333 16.0002 13.3333Z" fill="white"/>
</svg>
