<svg width="159" height="42" viewBox="0 0 159 42" fill="none" xmlns="http://www.w3.org/2000/svg">
<path d="M15.552 8.856L15.04 12.28H7.04V18.04H14.016V21.432H7.04V27.544H15.616V31H2.336V8.856H15.552ZM28.3058 13.528C29.7991 13.528 30.9618 13.9867 31.7938 14.904C32.6258 15.8 33.0417 17.048 33.0417 18.648V31H28.4978V19.416C28.4978 18.4987 28.3378 17.8587 28.0178 17.496C27.7191 17.112 27.2604 16.92 26.6418 16.92C26.0018 16.92 25.4151 17.1227 24.8818 17.528C24.3698 17.912 23.8684 18.4987 23.3778 19.288V31H18.8338V14.04H22.7698L23.1218 16.184C23.8258 15.3093 24.5938 14.648 25.4258 14.2C26.2791 13.752 27.2391 13.528 28.3058 13.528ZM52.533 14.968C51.4237 15.3947 49.7917 15.608 47.637 15.608C48.7037 16.0773 49.493 16.664 50.005 17.368C50.517 18.0507 50.773 18.9147 50.773 19.96C50.773 21.048 50.485 22.0293 49.909 22.904C49.3543 23.7573 48.5437 24.4293 47.477 24.92C46.4317 25.4107 45.205 25.656 43.797 25.656C43.0503 25.656 42.389 25.5813 41.813 25.432C41.3863 25.7093 41.173 26.0827 41.173 26.552C41.173 26.8933 41.301 27.1707 41.557 27.384C41.8343 27.576 42.357 27.672 43.125 27.672H45.717C46.9757 27.672 48.0743 27.8853 49.013 28.312C49.973 28.7173 50.709 29.2933 51.221 30.04C51.7543 30.7653 52.021 31.5973 52.021 32.536C52.021 34.264 51.2743 35.608 49.781 36.568C48.309 37.5493 46.1757 38.04 43.381 38.04C41.3757 38.04 39.7863 37.8267 38.613 37.4C37.461 36.9947 36.6503 36.3973 36.181 35.608C35.7117 34.8187 35.477 33.8267 35.477 32.632H39.541C39.541 33.1867 39.6477 33.624 39.861 33.944C40.0743 34.2853 40.4583 34.5307 41.013 34.68C41.589 34.8507 42.4103 34.936 43.477 34.936C44.949 34.936 45.973 34.7547 46.549 34.392C47.1463 34.0293 47.445 33.5173 47.445 32.856C47.445 32.2587 47.221 31.8 46.773 31.48C46.325 31.16 45.6637 31 44.789 31H42.293C40.6077 31 39.349 30.6907 38.517 30.072C37.685 29.432 37.269 28.632 37.269 27.672C37.269 27.0747 37.4397 26.4987 37.781 25.944C38.1437 25.368 38.6343 24.888 39.253 24.504C38.2077 23.928 37.4397 23.256 36.949 22.488C36.4797 21.6987 36.245 20.76 36.245 19.672C36.245 18.4347 36.5437 17.3573 37.141 16.44C37.7597 15.5013 38.613 14.7867 39.701 14.296C40.8103 13.784 42.069 13.528 43.477 13.528C45.2263 13.5707 46.6663 13.4213 47.797 13.08C48.9277 12.7387 50.133 12.2053 51.413 11.48L52.533 14.968ZM43.573 16.568C42.7197 16.568 42.037 16.8453 41.525 17.4C41.0343 17.9333 40.789 18.6693 40.789 19.608C40.789 20.568 41.0343 21.3253 41.525 21.88C42.037 22.4347 42.7303 22.712 43.605 22.712C44.5223 22.712 45.2157 22.4453 45.685 21.912C46.1543 21.3787 46.389 20.5893 46.389 19.544C46.389 17.56 45.4503 16.568 43.573 16.568ZM58.9953 31.512C57.6086 31.512 56.5313 31.1173 55.7633 30.328C54.9953 29.5173 54.6113 28.376 54.6113 26.904V7.288L59.1553 6.776V26.776C59.1553 27.5227 59.4646 27.896 60.0833 27.896C60.4246 27.896 60.7233 27.832 60.9792 27.704L61.9073 30.936C61.0326 31.32 60.0619 31.512 58.9953 31.512ZM68.784 14.04V31H64.24V14.04H68.784ZM66.48 5.304C67.2907 5.304 67.952 5.56 68.464 6.072C68.9973 6.56267 69.264 7.192 69.264 7.96C69.264 8.728 68.9973 9.368 68.464 9.88C67.952 10.3707 67.2907 10.616 66.48 10.616C65.6693 10.616 65.008 10.3707 64.496 9.88C63.984 9.368 63.728 8.728 63.728 7.96C63.728 7.192 63.984 6.56267 64.496 6.072C65.008 5.56 65.6693 5.304 66.48 5.304ZM78.9033 13.528C81.2926 13.528 83.3406 14.2107 85.0473 15.576L83.3193 18.168C81.8899 17.272 80.4819 16.824 79.0953 16.824C78.3486 16.824 77.7726 16.9627 77.3673 17.24C76.9619 17.5173 76.7593 17.8907 76.7593 18.36C76.7593 18.7013 76.8446 18.9893 77.0153 19.224C77.2073 19.4587 77.5486 19.6827 78.0393 19.896C78.5513 20.1093 79.3086 20.3653 80.3113 20.664C82.1033 21.1547 83.4366 21.816 84.3113 22.648C85.1859 23.4587 85.6233 24.5787 85.6233 26.008C85.6233 27.1387 85.2926 28.12 84.6313 28.952C83.9913 29.784 83.1166 30.424 82.0073 30.872C80.8979 31.2987 79.6606 31.512 78.2953 31.512C76.8659 31.512 75.5646 31.2987 74.3913 30.872C73.2179 30.424 72.2153 29.816 71.3833 29.048L73.6233 26.552C75.0526 27.6613 76.5673 28.216 78.1673 28.216C79.0206 28.216 79.6926 28.056 80.1833 27.736C80.6953 27.3947 80.9513 26.936 80.9513 26.36C80.9513 25.912 80.8553 25.56 80.6633 25.304C80.4713 25.048 80.1193 24.8133 79.6073 24.6C79.0953 24.3653 78.2953 24.0987 77.2073 23.8C75.5006 23.3307 74.2313 22.6693 73.3993 21.816C72.5886 20.9413 72.1833 19.864 72.1833 18.584C72.1833 17.624 72.4606 16.76 73.0153 15.992C73.5699 15.224 74.3486 14.6267 75.3513 14.2C76.3753 13.752 77.5593 13.528 78.9033 13.528ZM98.0558 13.528C99.5278 13.528 100.68 13.9867 101.512 14.904C102.365 15.8 102.792 17.048 102.792 18.648V31H98.2478V19.416C98.2478 18.4987 98.0878 17.8587 97.7678 17.496C97.4478 17.112 96.9891 16.92 96.3918 16.92C95.1971 16.92 94.1091 17.6987 93.1278 19.256V31H88.5838V7.288L93.1278 6.808V15.96C93.8104 15.1493 94.5464 14.5413 95.3358 14.136C96.1464 13.7307 97.0531 13.528 98.0558 13.528ZM111.915 8.856V27.224H120.683L120.171 31H107.211V8.856H111.915ZM127.94 14.04V31H123.396V14.04H127.94ZM125.636 5.304C126.447 5.304 127.108 5.56 127.62 6.072C128.154 6.56267 128.42 7.192 128.42 7.96C128.42 8.728 128.154 9.368 127.62 9.88C127.108 10.3707 126.447 10.616 125.636 10.616C124.826 10.616 124.164 10.3707 123.652 9.88C123.14 9.368 122.884 8.728 122.884 7.96C122.884 7.192 123.14 6.56267 123.652 6.072C124.164 5.56 124.826 5.304 125.636 5.304ZM139.692 10.168C138.924 10.168 138.369 10.3493 138.028 10.712C137.708 11.0747 137.548 11.6613 137.548 12.472V14.04H141.58L141.068 17.24H137.548V31H133.004V17.24H130.316V14.04H133.004V12.344C133.004 10.7013 133.537 9.368 134.604 8.344C135.692 7.29867 137.228 6.776 139.212 6.776C140.79 6.776 142.284 7.11733 143.692 7.8L142.444 10.808C141.526 10.3813 140.609 10.168 139.692 10.168ZM157.67 22.136C157.67 22.3493 157.638 22.936 157.574 23.896H146.982C147.131 25.432 147.547 26.52 148.23 27.16C148.912 27.8 149.84 28.12 151.014 28.12C151.739 28.12 152.422 28.0027 153.062 27.768C153.702 27.5333 154.395 27.16 155.142 26.648L157.03 29.208C155.131 30.744 152.987 31.512 150.598 31.512C147.931 31.512 145.883 30.712 144.454 29.112C143.024 27.512 142.31 25.3467 142.31 22.616C142.31 20.888 142.608 19.3413 143.206 17.976C143.824 16.5893 144.71 15.5013 145.862 14.712C147.035 13.9227 148.422 13.528 150.022 13.528C152.432 13.528 154.31 14.2853 155.654 15.8C156.998 17.3147 157.67 19.4267 157.67 22.136ZM153.158 20.856C153.158 18.04 152.144 16.632 150.118 16.632C149.179 16.632 148.443 16.984 147.91 17.688C147.398 18.3707 147.088 19.4907 146.982 21.048H153.158V20.856Z" fill="white"/>
<rect x="3" y="40" width="156" height="2" fill="white"/>
</svg>
